Coordinates
version=1
nRows=65
nColumns=12
inDegrees=yes

Units are S.I. units (second, meters, Newtons, ...)
Angles are in degrees

endheader
time	SC_y	SC_z	SC_x	AC_y	AC_z	AC_x	GH_y	GH_z	GH_yy	EL_x	PS_y
       0.0              -31.14          12.89          71.89          59.46         -14.18         -4.573          163.5          35.48         -146.3          34.13          48.15
   0.02791              -31.14          12.89          71.89          59.45         -14.18         -4.571          163.4          35.48         -146.3          34.14          48.15
   0.05583              -31.14          12.89          71.88          59.45         -14.18         -4.568          163.4          35.48         -146.3          34.15          48.16
   0.08374              -31.14          12.89          71.88          59.45         -14.18         -4.565          163.3          35.48         -146.2          34.17          48.17
    0.1117              -31.14          12.88          71.87          59.45         -14.17         -4.562          163.3          35.48         -146.2          34.18          48.18
    0.1396              -31.14          12.88          71.86          59.44         -14.17         -4.559          163.3          35.48         -146.1           34.2          48.18
    0.1675              -31.14          12.88          71.85          59.44         -14.17         -4.556          163.2          35.47         -146.1          34.21          48.19
    0.1954              -31.13          12.88          71.84          59.44         -14.17         -4.552          163.1          35.47         -146.0          34.23           48.2
    0.2233              -31.13          12.87          71.83          59.43         -14.16         -4.548          163.1          35.47         -145.9          34.25          48.22
    0.2512              -31.13          12.87          71.82          59.43         -14.16         -4.544          163.0          35.47         -145.9          34.27          48.23
    0.2791              -31.13          12.87          71.81          59.43         -14.16          -4.54          163.0          35.46         -145.8          34.29          48.24
     0.307              -31.12          12.86           71.8          59.42         -14.15         -4.535          162.9          35.46         -145.7          34.32          48.25
     0.335              -31.12          12.86          71.79          59.42         -14.15          -4.53          162.8          35.46         -145.6          34.35          48.27
    0.3629              -31.12          12.86          71.78          59.41         -14.15         -4.524          162.7          35.46         -145.6          34.37          48.28
    0.3908              -31.12          12.85          71.76          59.41         -14.14         -4.518          162.6          35.45         -145.5           34.4           48.3
    0.4187              -31.11          12.85          71.75           59.4         -14.14         -4.512          162.5          35.45         -145.4          34.44          48.32
    0.4466              -31.11          12.84          71.73          59.39         -14.13         -4.504          162.4          35.45         -145.2          34.47          48.34
    0.4745              -31.11          12.84          71.71          59.39         -14.13         -4.497          162.3          35.44         -145.1          34.51          48.36
    0.5024               -31.1          12.83          71.69          59.38         -14.12         -4.488          162.2          35.44         -145.0          34.56          48.38
    0.5303               -31.1          12.82          71.67          59.37         -14.11         -4.479          162.0          35.43         -144.8           34.6          48.41
    0.5583              -31.09          12.82          71.64          59.36         -14.11         -4.469          161.9          35.43         -144.7          34.65          48.44
    0.5862              -31.09          12.81          71.62          59.35          -14.1         -4.458          161.7          35.42         -144.5          34.71          48.47
    0.6141              -31.08           12.8          71.59          59.34         -14.09         -4.445          161.5          35.41         -144.3          34.77           48.5
     0.642              -31.07          12.79          71.56          59.33         -14.08         -4.431          161.3          35.41         -144.1          34.84          48.54
    0.6699              -31.06          12.78          71.52          59.31         -14.07         -4.416          161.1           35.4         -143.8          34.92          48.58
    0.6978              -31.06          12.77          71.48           59.3         -14.05         -4.399          160.8          35.39         -143.6          35.01          48.63
    0.7257              -31.05          12.75          71.43          59.28         -14.04          -4.38          160.5          35.38         -143.3           35.1          48.68
    0.7536              -31.03          12.74          71.38          59.26         -14.02         -4.359          160.2          35.37         -142.9          35.21          48.74
    0.7816              -31.02          12.72          71.32          59.24         -14.01         -4.334          159.8          35.35         -142.5          35.33          48.81
    0.8095              -31.01           12.7          71.26          59.22         -13.99         -4.307          159.4          35.34         -142.1          35.47          48.89
    0.8374              -30.99          12.68          71.18          59.19         -13.96         -4.275          158.9          35.32         -141.6          35.63          48.98
    0.8653              -30.97          12.65           71.1          59.16         -13.94         -4.239          158.4           35.3         -141.0          35.81          49.08
    0.8932              -30.95          12.62           71.0          59.12         -13.91         -4.198          157.8          35.28         -140.4          36.02          49.19
    0.9211              -30.93          12.59          70.88          59.07         -13.87         -4.149          157.0          35.25         -139.6          36.27          49.33
     0.949               -30.9          12.55          70.75          59.02         -13.83         -4.093          156.2          35.22         -138.7          36.55          49.49
    0.9769              -30.87           12.5          70.59          58.96         -13.78         -4.026          155.1          35.19         -137.6          36.89          49.67
     1.005              -30.83          12.44           70.4          58.89         -13.72         -3.947          153.9          35.14         -136.4          37.29          49.89
     1.033              -30.78          12.37          70.17          58.81         -13.65         -3.852          152.5          35.09         -134.8          37.77          50.16
     1.061              -30.72          12.29          69.89           58.7         -13.57         -3.736          150.7          35.03         -133.0          38.35          50.48
     1.089              -30.65          12.19          69.56          58.57         -13.46         -3.596          148.6          34.95         -130.8          39.06          50.87
     1.117              -30.56          12.07          69.14          58.42         -13.34         -3.423          146.0          34.86         -128.0          39.94          51.35
     1.144              -30.45          11.91          68.63          58.22         -13.18         -3.206          142.7          34.74         -124.6          41.03          51.96
     1.172              -30.31          11.72          67.98          57.98         -12.98         -2.934          138.5           34.6         -120.2           42.4          52.72
       1.2              -30.13          11.47          67.15          57.66         -12.72         -2.588          133.3          34.41         -114.7          44.15          53.68
     1.228              -29.91          11.15          66.09          57.26          -12.4         -2.144          126.5          34.17         -107.6          46.39          54.92
     1.256              -29.62          10.75          64.73          56.75         -11.98         -1.576          117.9          33.86         -98.59          49.26           56.5
     1.284              -29.25          10.23          62.99           56.1         -11.45         -0.849          106.8          33.47         -87.02          52.93          58.53
     1.312              -28.78          9.571          60.81          55.27         -10.78        0.06462          92.94          32.97         -72.46          57.54          61.08
      1.34              -28.22          8.774          58.15          54.27         -9.962          1.178          76.01          32.37         -54.73          63.16          64.18
     1.368              -27.56          7.851          55.06           53.1         -9.015          2.468          56.38          31.67         -34.18          69.68          67.78
     1.396              -26.85           6.85          51.72          51.84          -7.99          3.866          35.13          30.92         -11.92          76.73          71.68
     1.424              -26.13           5.85          48.38          50.58         -6.964          5.263          13.89          30.16          10.34          83.79          75.57
     1.451              -25.48          4.926           45.3          49.42         -6.017          6.554         -5.739          29.46          30.89           90.3          79.17
     1.479              -24.91          4.129          42.63          48.41         -5.201          7.667         -22.67          28.86          48.63          95.92          82.27
     1.507              -24.45          3.475          40.45          47.59          -4.53           8.58         -36.56          28.37          63.18          100.5          84.82
     1.535              -24.07          2.955          38.71          46.93         -3.997          9.307         -47.61          27.97          74.75          104.2          86.85
     1.563              -23.79          2.548          37.35          46.42          -3.58          9.876         -56.26          27.67          83.81          107.1          88.43
     1.591              -23.56          2.231          36.29          46.02         -3.254          10.32          -63.0          27.43          90.87          109.3          89.67
     1.619              -23.38          1.983          35.47          45.71           -3.0          10.67         -68.27          27.24          96.39          111.1          90.63
     1.647              -23.24          1.788          34.82          45.46           -2.8          10.94         -72.41          27.09          100.7          112.4          91.39
     1.675              -23.13          1.633           34.3          45.27         -2.642          11.15          -75.7          26.97          104.2          113.5           92.0
     1.703              -23.05          1.509          33.88          45.11         -2.515          11.33         -78.34          26.88          106.9          114.4          92.48
     1.731              -22.97          1.408          33.55          44.98         -2.411          11.47         -80.47           26.8          109.2          115.1          92.87
     1.759              -22.92          1.326          33.27          44.88         -2.327          11.58         -82.22          26.74          111.0          115.7          93.19
     1.786              -22.87          1.258          33.05          44.79         -2.257          11.68         -83.67          26.69          112.5          116.2          93.46
